# xmcd CD database file
#
# Track frame offsets:
#	150
#	41884
#	57075
#	73741
#	88612
#	131062
#
# Disc length: 1933 seconds
#
# Revision: 2
# Processed by: cddbd v1.5.2PL0 Copyright (c) Steve Scherf et al.
# Submitted via: CDex 1.51
#
DISCID=54078b06
DTITLE=James Brown - Super Bad [2007 Remaster]
DYEAR=1971
DGENRE=Soul
TTITLE0=Super Bad [Part 1, 2 and 3]
TTITLE1=Let It Be Me
TTITLE2=Sometime
TTITLE3=A Man Has To Go Back To The Crossroads
TTITLE4=Giving Out Of Juice
TTITLE5=By The Time I Get To Phoenix
EXTD=YEAR: 1971
EXTT0=
EXTT1=
EXTT2=
EXTT3=
EXTT4=
EXTT5=
PLAYORDER=
